<svg width="26" height="24" viewBox="0 0 26 24" fill="none" xmlns="http://www.w3.org/2000/svg">
<path d="M25.1891 3.36328C24.1002 1.09263 20.9635 -0.765168 17.3148 0.316485C15.5713 0.828197 14.0501 1.92558 12.9998 3.42933C11.9495 1.92558 10.4283 0.828197 8.68481 0.316485C5.02802 -0.748654 1.89944 1.09263 0.810528 3.36328C-0.717197 6.54218 -0.0833537 10.1174 2.69581 13.9899C4.87363 17.0202 7.98596 20.0917 12.5041 23.6587C12.6469 23.7719 12.8228 23.8333 13.0039 23.8333C13.185 23.8333 13.3609 23.7719 13.5036 23.6587C18.0137 20.1 21.1341 17.0532 23.312 13.9899C26.083 10.1174 26.7168 6.54218 25.1891 3.36328Z" fill="#78838B"/>
</svg>
