<svg width="16" height="16" viewBox="0 0 16 16" fill="none" xmlns="http://www.w3.org/2000/svg">
<path d="M7.66667 1C5.08667 1 3 3.08667 3 5.66667C3 9.16667 7.66667 14.3333 7.66667 14.3333C7.66667 14.3333 12.3333 9.16667 12.3333 5.66667C12.3333 3.08667 10.2467 1 7.66667 1ZM4.33333 5.66667C4.33333 3.82667 5.82667 2.33333 7.66667 2.33333C9.50667 2.33333 11 3.82667 11 5.66667C11 7.58667 9.08 10.46 7.66667 12.2533C6.28 10.4733 4.33333 7.56667 4.33333 5.66667Z" fill="#43525C"/>
<path d="M7.66667 7.33333C8.58714 7.33333 9.33333 6.58714 9.33333 5.66667C9.33333 4.74619 8.58714 4 7.66667 4C6.74619 4 6 4.74619 6 5.66667C6 6.58714 6.74619 7.33333 7.66667 7.33333Z" fill="#43525C"/>
</svg>
