<svg width="26" height="26" viewBox="0 0 26 26" fill="none" xmlns="http://www.w3.org/2000/svg">
<path fill-rule="evenodd" clip-rule="evenodd" d="M3.68387 1.59249C3.95037 1.32596 4.27049 1.11914 4.62301 0.985756C4.97553 0.852373 5.35239 0.795473 5.72857 0.818831C6.10476 0.842189 6.47168 0.945271 6.80499 1.12124C7.1383 1.29721 7.43039 1.54204 7.66187 1.83949L10.3935 5.35274C10.8956 5.99624 11.0727 6.83636 10.8745 7.62774L10.0409 10.9639C9.99751 11.137 9.99972 11.3184 10.0473 11.4904C10.0948 11.6624 10.1861 11.8191 10.3122 11.9454L14.0562 15.6877C14.1825 15.8139 14.3392 15.9051 14.5112 15.9527C14.6832 16.0003 14.8646 16.0025 15.0377 15.9591L18.3722 15.1255C18.7634 15.0278 19.1716 15.0203 19.566 15.1037C19.9604 15.187 20.3307 15.3589 20.6489 15.6065L24.1621 18.3381C25.4247 19.3196 25.5417 21.1867 24.4107 22.3161L22.8345 23.8924C21.7084 25.0185 20.0232 25.5141 18.4519 24.9616C14.4323 23.5468 10.7828 21.2452 7.77399 18.2276C4.75578 15.219 2.45365 11.5695 1.03837 7.54974C0.485866 5.97836 0.981491 4.29324 2.10762 3.16549L3.68387 1.59086V1.59249Z" fill="#2399EB"/>
</svg>
