<svg width="12" height="12" viewBox="0 0 12 12" fill="none" xmlns="http://www.w3.org/2000/svg">
<path d="M12.0003 10.6668L8.56433 7.23081C9.19955 6.26541 9.45397 5.09866 9.27833 3.95645C9.1027 2.81423 8.5095 1.77781 7.61359 1.04785C6.71768 0.317892 5.58279 -0.0536861 4.42864 0.00506167C3.2745 0.0638094 2.18321 0.548703 1.36605 1.36586C0.548886 2.18302 0.0639925 3.27432 0.00524477 4.42846C-0.053503 5.5826 0.318075 6.71749 1.04804 7.61341C1.778 8.50932 2.81442 9.10251 3.95663 9.27815C5.09884 9.45379 6.2656 9.19937 7.231 8.56415L10.667 12.0001L12.0003 10.6668ZM1.33366 4.66681C1.33366 2.82881 2.829 1.33348 4.667 1.33348C6.505 1.33348 8.00033 2.82881 8.00033 4.66681C8.00033 6.50481 6.505 8.00015 4.667 8.00015C2.829 8.00015 1.33366 6.50481 1.33366 4.66681Z" fill="#43525C"/>
</svg>
