<svg width="27" height="26" viewBox="0 0 27 26" xmlns="http://www.w3.org/2000/svg">
<path d="M17.0965 0H9.11528C1.83203 0 0.105469 1.72656 0.105469 9.00981V16.991C0.105469 24.2743 1.83203 26.0008 9.11528 26.0008H17.0965C24.3797 26.0008 26.1063 24.2743 26.1063 16.991V9.00981C26.1063 1.72656 24.3627 0 17.0965 0ZM21.0956 18.5477H19.2082C18.4932 18.5477 18.273 17.9806 16.9868 16.6774C15.8696 15.5943 15.3748 15.4505 15.0993 15.4505C14.7102 15.4505 14.5997 15.5602 14.5997 16.094V17.7994C14.5997 18.2569 14.4558 18.5315 13.2452 18.5315C11.2432 18.5315 9.02184 17.3209 7.46428 15.0654C5.11534 11.7601 4.47266 9.28444 4.47266 8.77256C4.47266 8.49712 4.58234 8.23956 5.11128 8.23956H7.00278C7.48134 8.23956 7.66334 8.45975 7.84941 8.97162C8.78459 11.6716 10.3422 14.0367 10.9848 14.0367C11.2221 14.0367 11.3318 13.9271 11.3318 13.3217V10.5332C11.2595 9.24706 10.5827 9.13656 10.5827 8.67994C10.5827 8.45975 10.7647 8.23956 11.0563 8.23956H14.0309C14.4331 8.23956 14.581 8.45975 14.581 8.93344V12.6953C14.581 13.1016 14.763 13.2454 14.8727 13.2454C15.1099 13.2454 15.313 13.1016 15.7526 12.6612C17.1111 11.1378 18.0845 8.78881 18.0845 8.78881C18.2112 8.51338 18.4314 8.25581 18.91 8.25581H20.8015C21.3686 8.25581 21.4953 8.5475 21.3686 8.95375C21.1313 10.0539 18.8165 13.3209 18.8165 13.3209C18.6175 13.6508 18.5411 13.7946 18.8165 14.1627C19.0197 14.4381 19.6802 15.0093 20.1198 15.5212C20.9282 16.4393 21.5498 17.2096 21.7155 17.7426C21.9016 18.2715 21.627 18.5469 21.0932 18.5469L21.0956 18.5477Z" />
</svg>
